<mxfile host="app.diagrams.net" modified="2023-05-10T05:47:58.186Z" agent="Mozilla/5.0 (Macintosh; Intel Mac OS X 10_15_7) AppleWebKit/537.36 (KHTML, like Gecko) Chrome/112.0.0.0 Safari/537.36" version="21.2.9" etag="lVYw7j4MV2pxswumVYEB" type="github">
  <diagram name="페이지-1" id="ntnQ9Pl-NUV9vmeDU0ns">
    <mxGraphModel>
      <root>
        <mxCell id="0" />
        <mxCell id="1" parent="0" />
      </root>
    </mxGraphModel>
  </diagram>
</mxfile>
